<?xml version="1.0" encoding="utf-8"?>
    <!-- Generator: Grasshopper 1.0.0, Redback Plugin. SVG Version: 6.00 Build 0) Made by Andrew Butler at Cox Architecture -->
    <!DOCTYPE svg PUBLIC "-//W3C//DTD SVG 1.1//EN" "http://www.w3.org/Graphics/SVG/1.1/DTD/svg11.dtd">
    <svg version="1.1" xmlns="http://www.w3.org/2000/svg" xmlns:xlink="http://www.w3.org/1999/xlink" x="0px" y="0px"
    width="420mm" height="297mm" viewBox="0 0 420 297" xml:space="preserve">
    <style type="text/css">
    *{
fill: none;
stroke: #e31212;
stroke-width: 0.1mm;
stroke-linejoin: round;
}


[layer="Default"]{
stroke-width: 0.25mm;
stroke-dasharray: 0.5mm 0.1mm;
}

[layer="Layer 02"]{
stroke-width: 0.5mm;
fill: #7a5f5f;
}
    </style>
    <path spline_1deg="" d=" M227.37,102.36 L190.77,102.77 L163.59,130.16 L197.03,166.01 L184.49,187.55 L248.46,182.35 L206.68,146.62Z" layer="Default"/>
<path spline_1deg="" d=" M228.98,255.84 L229.46,255.83 L229.95,255.81 L230.44,255.79 L230.92,255.76 L231.41,255.74 L231.89,255.71 L232.38,255.68 L232.86,255.65 L233.34,255.61 L233.82,255.57 L234.30,255.54 L234.78,255.49 L235.26,255.45 L235.74,255.41 L236.22,255.36 L236.69,255.31 L237.17,255.26 L237.64,255.20 L238.12,255.15 L238.59,255.09 L239.06,255.03 L239.54,254.97 L240.01,254.90 L240.48,254.84 L240.94,254.77 L241.41,254.70 L241.88,254.62 L242.34,254.55 L242.81,254.47 L243.27,254.39 L243.74,254.31 L244.20,254.23 L244.66,254.15 L245.12,254.06 L245.58,253.97 L246.04,253.88 L246.50,253.79 L246.95,253.70 L247.41,253.60 L247.86,253.50 L248.31,253.40 L248.77,253.30 L249.22,253.20 L249.67,253.09 L250.12,252.99 L250.56,252.88 L251.01,252.77 L251.46,252.66 L251.90,252.54 L252.34,252.43 L252.79,252.31 L253.23,252.19 L253.67,252.07 L254.11,251.95 L254.54,251.82 L254.98,251.69 L255.42,251.57 L255.85,251.44 L256.28,251.31 L256.72,251.17 L257.15,251.04 L257.58,250.90 L258.00,250.76 L258.43,250.62 L258.86,250.48 L259.28,250.34 L259.70,250.20 L260.13,250.05 L260.55,249.90 L260.97,249.75 L261.39,249.60 L261.80,249.45 L262.22,249.30 L262.63,249.14 L263.04,248.98 L263.46,248.83 L263.87,248.67 L264.28,248.50 L264.68,248.34 L265.09,248.18 L265.49,248.01 L265.90,247.84 L266.30,247.68 L266.70,247.51 L267.10,247.33 L267.50,247.16 L267.89,246.99 L268.29,246.81 L268.68,246.63 L269.07,246.46 L269.47,246.28 L269.85,246.10 L270.24,245.91 L270.63,245.73 L271.01,245.54 L271.40,245.36 L271.78,245.17 L272.16,244.98 L272.54,244.79 L272.91,244.60 L273.29,244.41 L273.66,244.21 L274.04,244.02 L274.41,243.82 L274.78,243.63 L275.15,243.43 L275.51,243.23 L275.88,243.03 L276.24,242.82 L276.60,242.62 L276.96,242.42 L277.32,242.21 L277.68,242.00 L278.03,241.80 L278.38,241.59 L278.73,241.38 L279.08,241.17 L279.43,240.95 L279.78,240.74 L280.12,240.53 L280.47,240.31 L280.81,240.09 L281.15,239.88 L281.49,239.66 L281.82,239.44 L282.16,239.22 L282.49,239.00 L282.82,238.78 L283.15,238.55 L283.48,238.33 L283.80,238.10 L284.13,237.88 L284.45,237.65 L284.77,237.42 L285.09,237.19 L285.40,236.96 L285.72,236.73 L286.03,236.50 L286.34,236.27 L286.65,236.04 L286.96,235.80 L287.26,235.57 L287.57,235.33 L287.87,235.10 L288.17,234.86 L288.47,234.62 L288.76,234.38 L289.06,234.14 L289.35,233.90 L289.64,233.66 L289.93,233.42 L290.21,233.18 L290.50,232.93 L290.78,232.69 L291.06,232.45 L291.34,232.20 L291.61,231.95 L291.89,231.71 L292.16,231.46 L292.43,231.21 L292.70,230.96 L292.96,230.72 L293.23,230.47 L293.49,230.22 L293.75,229.96 L294.01,229.71 L294.26,229.46 L294.51,229.21 L294.77,228.96 L295.01,228.70 L295.26,228.45 L295.51,228.19 L295.75,227.94 L295.99,227.68 L296.23,227.43 L296.47,227.17 L296.70,226.91 L296.93,226.66 L297.16,226.40 L297.39,226.14 L297.61,225.88 L297.84,225.62 L298.06,225.36 L298.28,225.10 L298.49,224.84 L298.71,224.58 L298.92,224.32 L299.13,224.06 L299.34,223.80 L299.54,223.54 L299.74,223.27 L299.94,223.01 L300.14,222.75 L300.34,222.49 L300.53,222.22 L300.72,221.96 L300.91,221.69 L301.10,221.43 L301.28,221.17 L301.46,220.90 L301.64,220.64 L301.82,220.37 L302.00,220.11 L302.17,219.84 L302.34,219.57 L302.51,219.31 L302.67,219.04 L302.83,218.78 L302.99,218.51 L303.15,218.24 L303.31,217.98 L303.46,217.71 L303.61,217.45 L303.76,217.18 L303.90,216.91 L304.04,216.64 L304.18,216.38 L304.32,216.11 L304.46,215.84 L304.59,215.58 L304.72,215.31 L304.85,215.04 L304.97,214.78 L305.09,214.51 L305.21,214.24 L305.33,213.98 L305.45,213.71 L305.56,213.44 L305.67,213.18 L305.77,212.91 L305.88,212.64 L305.98,212.38 L306.08,212.11 L306.17,211.85 L306.27,211.58 L306.36,211.31 L306.45,211.05 L306.53,210.78 L306.62,210.52 L306.70,210.25 L306.77,209.99 L306.85,209.72 L306.92,209.46 L306.99,209.20 L307.06,208.93 L307.12,208.67 L307.18,208.40 L307.24,208.14 L307.29,207.88 L307.35,207.62 L307.40,207.35 L307.44,207.09 L307.49,206.83 L307.53,206.57 L307.57,206.31 L307.60,206.05 L307.64,205.79 L307.67,205.53 L307.69,205.27 L307.72,205.01 L307.74,204.75 L307.76,204.49 L307.77,204.24 L307.79,203.98 L307.80,203.72 L307.81,203.46 L307.81,203.21 L307.81,202.95 L307.81,202.69 L307.81,202.44 L307.81,202.18 L307.80,201.93 L307.79,201.67 L307.77,201.42 L307.76,201.16 L307.74,200.91 L307.72,200.66 L307.70,200.40 L307.67,200.15 L307.64,199.90 L307.61,199.64 L307.58,199.39 L307.55,199.14 L307.51,198.89 L307.47,198.64 L307.43,198.38 L307.38,198.13 L307.33,197.88 L307.29,197.63 L307.23,197.38 L307.18,197.13 L307.12,196.88 L307.07,196.63 L307.01,196.38 L306.94,196.13 L306.88,195.88 L306.81,195.63 L306.74,195.38 L306.67,195.13 L306.60,194.88 L306.52,194.64 L306.45,194.39 L306.37,194.14 L306.28,193.89 L306.20,193.64 L306.12,193.39 L306.03,193.15 L305.94,192.90 L305.85,192.65 L305.75,192.40 L305.66,192.16 L305.56,191.91 L305.46,191.66 L305.36,191.41 L305.26,191.17 L305.15,190.92 L305.05,190.67 L304.94,190.43 L304.83,190.18 L304.72,189.93 L304.60,189.69 L304.49,189.44 L304.37,189.19 L304.25,188.95 L304.13,188.70 L304.01,188.45 L303.89,188.21 L303.76,187.96 L303.64,187.71 L303.51,187.47 L303.38,187.22 L303.25,186.97 L303.11,186.73 L302.98,186.48 L302.84,186.23 L302.71,185.99 L302.57,185.74 L302.43,185.49 L302.29,185.25 L302.14,185.00 L302.00,184.75 L301.85,184.51 L301.70,184.26 L301.56,184.01 L301.41,183.77 L301.25,183.52 L301.10,183.27 L300.95,183.02 L300.79,182.78 L300.64,182.53 L300.48,182.28 L300.32,182.03 L300.16,181.79 L300.00,181.54 L299.84,181.29 L299.67,181.04 L299.51,180.79 L299.34,180.55 L299.18,180.30 L299.01,180.05 L298.84,179.80 L298.67,179.55 L298.50,179.30 L298.33,179.05 L298.16,178.80 L297.98,178.55 L297.81,178.30 L297.63,178.05 L297.46,177.80 L297.28,177.55 L297.10,177.30 L296.92,177.05 L296.74,176.80 L296.56,176.55 L296.38,176.30 L296.20,176.05 L296.01,175.79 L295.83,175.54 L295.65,175.29 L295.46,175.04 L295.27,174.78 L295.09,174.53 L294.90,174.28 L294.71,174.02 L294.52,173.77 L294.33,173.52 L294.14,173.26 L293.95,173.01 L293.76,172.75 L293.57,172.50 L293.38,172.24 L293.19,171.98 L292.80,171.47 L292.41,170.96 L292.02,170.44 L291.63,169.93 L290.05,167.84 L289.65,167.32 L289.26,166.80 L288.86,166.27 L288.46,165.74 L288.26,165.47 L288.06,165.21 L287.86,164.94 L287.66,164.68 L287.46,164.41 L287.26,164.14 L287.06,163.87 L286.86,163.61 L286.66,163.34 L286.46,163.07 L286.26,162.80 L286.06,162.53 L285.86,162.26 L285.67,161.99 L285.47,161.71 L285.27,161.44 L285.07,161.17 L284.87,160.90 L284.67,160.62 L284.48,160.35 L284.28,160.07 L284.08,159.80 L283.88,159.52 L283.69,159.25 L283.49,158.97 L283.30,158.69 L283.10,158.41 L282.91,158.14 L282.71,157.86 L282.52,157.58 L282.32,157.30 L282.13,157.02 L281.94,156.73 L281.74,156.45 L281.55,156.17 L281.36,155.89 L281.17,155.60 L280.98,155.32 L280.79,155.03 L280.60,154.75 L280.41,154.46 L280.23,154.17 L280.04,153.89 L279.85,153.60 L279.67,153.31 L279.48,153.02 L279.30,152.73 L279.11,152.44 L278.93,152.15 L278.75,151.85 L278.57,151.56 L278.39,151.27 L278.21,150.97 L278.03,150.68 L277.85,150.38 L277.67,150.09 L277.50,149.79 L277.32,149.49 L277.15,149.19 L276.98,148.89 L276.80,148.59 L276.63,148.29 L276.46,147.99 L276.29,147.69 L276.12,147.39 L275.96,147.08 L275.79,146.78 L275.63,146.47 L275.46,146.17 L275.30,145.86 L275.14,145.55 L274.98,145.24 L274.82,144.94 L274.66,144.63 L274.50,144.32 L274.35,144.00 L274.19,143.69 L274.04,143.38 L273.89,143.06 L273.74,142.75 L273.59,142.43 L273.44,142.12 L273.29,141.80 L273.15,141.48 L273.00,141.16 L272.86,140.84 L272.72,140.52 L272.58,140.20 L272.44,139.88 L272.31,139.56 L272.17,139.23 L272.04,138.91 L271.90,138.58 L271.77,138.25 L271.64,137.93 L271.52,137.60 L271.39,137.27 L271.27,136.94 L271.14,136.61 L271.02,136.27 L270.90,135.94 L270.78,135.61 L270.67,135.27 L270.55,134.94 L270.44,134.60 L270.33,134.26 L270.21,133.93 L270.10,133.59 L270.00,133.25 L269.89,132.91 L269.78,132.57 L269.68,132.23 L269.58,131.88 L269.48,131.54 L269.38,131.20 L269.28,130.85 L269.18,130.51 L269.08,130.16 L268.99,129.82 L268.89,129.47 L268.80,129.12 L268.71,128.77 L268.62,128.43 L268.53,128.08 L268.44,127.73 L268.35,127.38 L268.26,127.03 L268.18,126.67 L268.09,126.32 L268.01,125.97 L267.93,125.62 L267.85,125.26 L267.77,124.91 L267.69,124.56 L267.61,124.20 L267.53,123.85 L267.46,123.49 L267.38,123.14 L267.31,122.78 L267.23,122.42 L267.16,122.07 L267.09,121.71 L267.01,121.35 L266.94,121.00 L266.87,120.64 L266.80,120.28 L266.73,119.92 L266.67,119.56 L266.60,119.20 L266.53,118.84 L266.47,118.48 L266.40,118.12 L266.34,117.76 L266.27,117.40 L266.21,117.04 L266.15,116.68 L266.08,116.32 L266.02,115.96 L265.96,115.60 L265.90,115.24 L265.84,114.88 L265.78,114.52 L265.72,114.16 L265.66,113.80 L265.60,113.44 L265.54,113.07 L265.49,112.71 L265.43,112.35 L265.37,111.99 L265.31,111.63 L265.26,111.27 L265.20,110.91 L265.14,110.55 L265.09,110.19 L264.98,109.46 L264.87,108.74 L264.76,108.02 L264.65,107.30 L264.32,105.15 L264.21,104.43 L264.11,103.72 L264.00,103.00 L263.89,102.29 L263.83,101.94 L263.78,101.58 L263.72,101.23 L263.67,100.87 L263.61,100.52 L263.56,100.17 L263.50,99.81 L263.44,99.46 L263.39,99.11 L263.33,98.76 L263.27,98.40 L263.21,98.05 L263.16,97.70 L263.10,97.35 L263.04,97.01 L262.98,96.66 L262.92,96.31 L262.86,95.96 L262.80,95.62 L262.74,95.27 L262.67,94.92 L262.61,94.58 L262.55,94.24 L262.49,93.89 L262.42,93.55 L262.36,93.21 L262.29,92.87 L262.23,92.52 L262.16,92.18 L262.09,91.85 L262.03,91.51 L261.96,91.17 L261.89,90.83 L261.82,90.50 L261.75,90.16 L261.68,89.83 L261.61,89.49 L261.53,89.16 L261.46,88.83 L261.39,88.50 L261.31,88.17 L261.23,87.84 L261.16,87.51 L261.08,87.18 L261.00,86.86 L260.92,86.53 L260.84,86.21 L260.76,85.88 L260.67,85.56 L260.59,85.24 L260.51,84.92 L260.42,84.60 L260.33,84.28 L260.25,83.96 L260.16,83.65 L260.07,83.33 L259.98,83.02 L259.88,82.70 L259.79,82.39 L259.69,82.08 L259.60,81.77 L259.50,81.46 L259.40,81.16 L259.30,80.85 L259.20,80.54 L259.10,80.24 L259.00,79.94 L258.89,79.64 L258.79,79.34 L258.68,79.04 L258.57,78.74 L258.46,78.44 L258.35,78.15 L258.23,77.85 L258.12,77.56 L258.00,77.27 L257.89,76.98 L257.77,76.69 L257.65,76.41 L257.52,76.12 L257.40,75.84 L257.28,75.55 L257.15,75.27 L257.02,74.99 L256.89,74.71 L256.76,74.44 L256.63,74.16 L256.49,73.89 L256.35,73.62 L256.22,73.34 L256.08,73.07 L255.93,72.81 L255.79,72.54 L255.64,72.28 L255.50,72.01 L255.35,71.75 L255.20,71.49 L255.05,71.23 L254.89,70.98 L254.74,70.72 L254.58,70.47 L254.42,70.21 L254.25,69.96 L254.09,69.72 L253.92,69.47 L253.76,69.22 L253.59,68.98 L253.42,68.74 L253.24,68.50 L253.07,68.26 L252.89,68.02 L252.71,67.79 L252.52,67.56 L252.34,67.33 L252.15,67.10 L251.96,66.87 L251.77,66.65 L251.58,66.42 L251.39,66.20 L251.19,65.98 L250.99,65.76 L250.79,65.55 L250.58,65.33 L250.38,65.12 L250.17,64.91 L249.96,64.70 L249.74,64.50 L249.53,64.29 L249.31,64.09 L249.09,63.89 L248.86,63.69 L248.64,63.50 L248.41,63.30 L248.18,63.11 L247.95,62.92 L247.71,62.73 L247.47,62.55 L247.23,62.37 L246.99,62.18 L246.74,62.01 L246.50,61.83 L246.24,61.65 L245.99,61.48 L245.73,61.31 L245.48,61.14 L245.21,60.98 L244.95,60.81 L244.68,60.65 L244.41,60.49 L244.14,60.34 L243.87,60.18 L243.59,60.03 L243.31,59.88 L243.02,59.73 L242.74,59.59 L242.45,59.44 L242.16,59.30 L241.86,59.17 L241.56,59.03 L241.26,58.90 L240.96,58.77 L240.65,58.64 L240.34,58.51 L240.03,58.39 L239.72,58.27 L239.40,58.15 L239.08,58.03 L238.76,57.91 L238.43,57.80 L238.11,57.69 L237.78,57.58 L237.44,57.48 L237.11,57.38 L236.77,57.28 L236.43,57.18 L236.09,57.08 L235.74,56.99 L235.39,56.90 L235.04,56.81 L234.69,56.72 L234.34,56.64 L233.98,56.55 L233.62,56.47 L233.26,56.39 L232.89,56.32 L232.53,56.25 L232.16,56.17 L231.79,56.11 L231.41,56.04 L231.04,55.98 L230.66,55.91 L230.28,55.85 L229.90,55.80 L229.51,55.74 L229.13,55.69 L228.74,55.64 L228.35,55.59 L227.96,55.54 L227.56,55.50 L227.17,55.46 L226.77,55.42 L226.37,55.38 L225.97,55.34 L225.56,55.31 L225.16,55.28 L224.75,55.25 L224.34,55.22 L223.93,55.20 L223.51,55.18 L223.10,55.16 L222.68,55.14 L222.26,55.12 L221.84,55.11 L221.42,55.10 L220.99,55.09 L220.57,55.08 L220.14,55.08 L219.71,55.07 L219.28,55.07 L218.85,55.08 L218.42,55.08 L217.98,55.08 L217.54,55.09 L217.11,55.10 L216.67,55.12 L216.22,55.13 L215.78,55.15 L215.34,55.16 L214.89,55.18 L214.44,55.21 L214.00,55.23 L213.55,55.26 L213.10,55.29 L212.64,55.32 L212.19,55.35 L211.74,55.39 L211.28,55.43 L210.82,55.46 L210.36,55.51 L209.90,55.55 L209.44,55.60 L208.98,55.64 L208.52,55.69 L208.05,55.74 L207.59,55.80 L207.12,55.85 L206.65,55.91 L206.18,55.97 L205.72,56.03 L205.24,56.10 L204.77,56.16 L204.30,56.23 L203.83,56.30 L203.35,56.37 L202.88,56.45 L202.40,56.52 L201.92,56.60 L201.45,56.68 L200.97,56.76 L200.49,56.85 L200.01,56.93 L199.53,57.02 L199.05,57.11 L198.56,57.20 L198.08,57.30 L197.60,57.39 L197.11,57.49 L196.63,57.59 L196.14,57.69 L195.66,57.80 L195.17,57.90 L194.68,58.01 L194.20,58.12 L193.71,58.23 L193.22,58.35 L192.73,58.46 L192.24,58.58 L191.75,58.70 L191.26,58.82 L190.77,58.94 L190.28,59.07 L189.79,59.19 L189.30,59.32 L188.80,59.45 L188.31,59.59 L187.82,59.72 L187.33,59.86 L186.83,60.00 L186.34,60.14 L185.85,60.28 L185.35,60.42 L184.86,60.57 L184.37,60.72 L183.87,60.86 L183.38,61.02 L182.88,61.17 L182.39,61.32 L181.90,61.48 L181.40,61.64 L180.91,61.80 L180.41,61.96 L179.92,62.13 L179.43,62.29 L178.93,62.46 L178.44,62.63 L177.95,62.80 L177.45,62.98 L176.96,63.15 L176.47,63.33 L175.97,63.51 L175.48,63.69 L174.99,63.87 L174.50,64.06 L174.01,64.24 L173.51,64.43 L173.02,64.62 L172.53,64.81 L172.04,65.01 L171.55,65.20 L171.06,65.40 L170.58,65.60 L170.09,65.80 L169.60,66.00 L169.11,66.20 L168.63,66.41 L168.14,66.61 L167.65,66.82 L167.17,67.03 L166.68,67.25 L166.20,67.46 L165.72,67.68 L165.23,67.90 L164.75,68.12 L164.27,68.34 L163.79,68.56 L163.31,68.78 L162.83,69.01 L162.36,69.24 L161.88,69.47 L161.40,69.70 L160.93,69.93 L160.45,70.17 L159.98,70.40 L159.51,70.64 L159.03,70.88 L158.56,71.12 L158.09,71.37 L157.62,71.61 L157.16,71.86 L156.69,72.11 L156.22,72.36 L155.76,72.61 L155.30,72.86 L154.83,73.12 L154.37,73.37 L153.91,73.63 L153.45,73.89 L152.99,74.15 L152.54,74.41 L152.08,74.68 L151.63,74.95 L151.18,75.21 L150.72,75.48 L150.27,75.75 L149.83,76.03 L149.38,76.30 L148.93,76.58 L148.49,76.85 L148.04,77.13 L147.60,77.41 L147.16,77.70 L146.72,77.98 L146.29,78.26 L145.85,78.55 L145.42,78.84 L144.98,79.13 L144.55,79.42 L144.12,79.72 L143.69,80.01 L143.27,80.31 L142.84,80.60 L142.42,80.90 L142.00,81.20 L141.58,81.51 L141.16,81.81 L140.75,82.12 L140.33,82.42 L139.92,82.73 L139.51,83.04 L139.10,83.35 L138.70,83.67 L138.29,83.98 L137.89,84.30 L137.49,84.61 L137.09,84.93 L136.69,85.25 L136.30,85.58 L135.90,85.90 L135.51,86.22 L135.12,86.55 L134.74,86.88 L134.35,87.21 L133.97,87.54 L133.59,87.87 L133.21,88.21 L132.83,88.54 L132.46,88.88 L132.09,89.22 L131.72,89.56 L131.35,89.90 L130.99,90.24 L130.62,90.58 L130.26,90.93 L129.90,91.28 L129.55,91.62 L129.19,91.97 L128.84,92.32 L128.49,92.68 L128.15,93.03 L127.80,93.39 L127.46,93.74 L127.12,94.10 L126.79,94.46 L126.45,94.82 L126.12,95.18 L125.79,95.54 L125.46,95.91 L125.13,96.27 L124.81,96.64 L124.49,97.01 L124.17,97.38 L123.86,97.75 L123.54,98.12 L123.23,98.49 L122.92,98.87 L122.61,99.24 L122.31,99.62 L122.01,100.00 L121.71,100.38 L121.41,100.76 L121.11,101.14 L120.82,101.52 L120.53,101.91 L120.24,102.29 L119.96,102.68 L119.67,103.06 L119.39,103.45 L119.11,103.84 L118.84,104.23 L118.56,104.62 L118.29,105.02 L118.02,105.41 L117.75,105.80 L117.49,106.20 L117.23,106.60 L116.97,106.99 L116.71,107.39 L116.45,107.79 L116.20,108.19 L115.95,108.60 L115.70,109.00 L115.46,109.40 L115.21,109.81 L114.97,110.21 L114.73,110.62 L114.50,111.03 L114.26,111.44 L114.03,111.85 L113.80,112.26 L113.57,112.67 L113.35,113.08 L113.13,113.49 L112.91,113.91 L112.69,114.32 L112.47,114.74 L112.26,115.15 L112.05,115.57 L111.84,115.99 L111.64,116.41 L111.43,116.82 L111.23,117.25 L111.03,117.67 L110.84,118.09 L110.64,118.51 L110.45,118.93 L110.26,119.36 L110.07,119.78 L109.89,120.21 L109.71,120.64 L109.53,121.06 L109.35,121.49 L109.18,121.92 L109.00,122.35 L108.83,122.78 L108.66,123.21 L108.50,123.64 L108.34,124.07 L108.18,124.50 L108.02,124.94 L107.86,125.37 L107.71,125.80 L107.56,126.24 L107.41,126.67 L107.26,127.11 L107.12,127.55 L106.98,127.98 L106.84,128.42 L106.70,128.86 L106.57,129.30 L106.43,129.74 L106.30,130.18 L106.18,130.62 L106.05,131.06 L105.93,131.50 L105.81,131.94 L105.69,132.38 L105.58,132.82 L105.46,133.27 L105.35,133.71 L105.24,134.15 L105.14,134.60 L105.04,135.04 L104.93,135.49 L104.84,135.93 L104.74,136.38 L104.65,136.82 L104.56,137.27 L104.47,137.72 L104.38,138.16 L104.30,138.61 L104.21,139.06 L104.13,139.51 L104.06,139.96 L103.98,140.40 L103.91,140.85 L103.84,141.30 L103.77,141.75 L103.71,142.20 L103.65,142.65 L103.59,143.10 L103.53,143.55 L103.47,144.00 L103.42,144.45 L103.37,144.90 L103.32,145.36 L103.28,145.81 L103.24,146.26 L103.19,146.71 L103.16,147.16 L103.12,147.61 L103.09,148.07 L103.06,148.52 L103.03,148.97 L103.00,149.42 L102.98,149.88 L102.96,150.33 L102.94,150.78 L102.92,151.23 L102.91,151.69 L102.90,152.14 L102.89,152.59 L102.88,153.05 L102.88,153.50 L102.87,153.95 L102.87,154.40 L102.88,154.86 L102.88,155.31 L102.89,155.76 L102.90,156.22 L102.91,156.67 L102.93,157.12 L102.95,157.57 L102.97,158.03 L102.99,158.48 L103.01,158.93 L103.04,159.38 L103.07,159.84 L103.10,160.29 L103.14,160.74 L103.18,161.19 L103.22,161.64 L103.26,162.10 L103.30,162.55 L103.35,163.00 L103.40,163.45 L103.45,163.90 L103.50,164.35 L103.56,164.80 L103.62,165.25 L103.68,165.70 L103.75,166.15 L103.81,166.60 L103.88,167.05 L103.95,167.50 L104.03,167.95 L104.10,168.39 L104.18,168.84 L104.26,169.29 L104.35,169.74 L104.43,170.18 L104.52,170.63 L104.61,171.08 L104.71,171.52 L104.80,171.97 L104.90,172.41 L105.00,172.86 L105.11,173.30 L105.21,173.75 L105.32,174.19 L105.43,174.63 L105.55,175.08 L105.66,175.52 L105.78,175.96 L105.90,176.40 L106.02,176.84 L106.15,177.28 L106.28,177.72 L106.41,178.16 L106.54,178.60 L106.68,179.04 L106.81,179.48 L106.95,179.91 L107.10,180.35 L107.24,180.79 L107.39,181.22 L107.54,181.66 L107.69,182.09 L107.85,182.53 L108.01,182.96 L108.17,183.39 L108.33,183.82 L108.50,184.26 L108.66,184.69 L108.83,185.12 L109.01,185.55 L109.18,185.97 L109.36,186.40 L109.54,186.83 L109.72,187.26 L109.91,187.68 L110.10,188.11 L110.29,188.53 L110.48,188.96 L110.67,189.38 L110.87,189.80 L111.07,190.22 L111.27,190.64 L111.48,191.06 L111.69,191.48 L111.90,191.90 L112.11,192.32 L112.32,192.74 L112.54,193.15 L112.76,193.57 L112.98,193.98 L113.21,194.39 L113.44,194.81 L113.67,195.22 L113.90,195.63 L114.14,196.04 L114.37,196.45 L114.61,196.86 L114.86,197.26 L115.10,197.67 L115.35,198.08 L115.60,198.48 L115.85,198.88 L116.11,199.29 L116.36,199.69 L116.62,200.09 L116.89,200.49 L117.15,200.89 L117.42,201.28 L117.69,201.68 L117.96,202.07 L118.24,202.47 L118.52,202.86 L118.79,203.25 L119.08,203.65 L119.36,204.04 L119.65,204.43 L119.94,204.81 L120.23,205.20 L120.52,205.59 L120.82,205.97 L121.12,206.36 L121.42,206.74 L121.72,207.12 L122.03,207.50 L122.33,207.88 L122.64,208.26 L122.96,208.64 L123.27,209.01 L123.59,209.39 L123.91,209.76 L124.23,210.14 L124.55,210.51 L124.87,210.88 L125.20,211.25 L125.53,211.62 L125.86,211.98 L126.20,212.35 L126.53,212.72 L126.87,213.08 L127.21,213.44 L127.55,213.80 L127.89,214.16 L128.24,214.52 L128.59,214.88 L128.94,215.24 L129.29,215.59 L129.64,215.95 L130.00,216.30 L130.36,216.65 L130.72,217.00 L131.08,217.35 L131.44,217.70 L131.81,218.05 L132.17,218.40 L132.54,218.74 L132.91,219.08 L133.29,219.43 L133.66,219.77 L134.04,220.11 L134.42,220.45 L134.80,220.78 L135.18,221.12 L135.56,221.45 L135.95,221.79 L136.34,222.12 L136.72,222.45 L137.11,222.78 L137.51,223.11 L137.90,223.43 L138.30,223.76 L138.69,224.08 L139.09,224.41 L139.49,224.73 L139.90,225.05 L140.30,225.37 L140.71,225.68 L141.11,226.00 L141.52,226.31 L141.93,226.63 L142.34,226.94 L142.76,227.25 L143.17,227.56 L143.59,227.87 L144.01,228.17 L144.43,228.48 L144.85,228.78 L145.27,229.09 L145.69,229.39 L146.12,229.69 L146.55,229.98 L146.97,230.28 L147.40,230.58 L147.83,230.87 L148.27,231.16 L148.70,231.45 L149.14,231.74 L149.57,232.03 L150.01,232.32 L150.45,232.60 L150.89,232.89 L151.33,233.17 L151.77,233.45 L152.22,233.73 L152.66,234.01 L153.11,234.28 L153.56,234.56 L154.01,234.83 L154.46,235.10 L154.91,235.37 L155.36,235.64 L155.82,235.91 L156.27,236.17 L156.73,236.44 L157.18,236.70 L157.64,236.96 L158.10,237.22 L158.56,237.48 L159.02,237.74 L159.49,237.99 L159.95,238.24 L160.42,238.50 L160.88,238.75 L161.35,238.99 L161.82,239.24 L162.29,239.49 L162.76,239.73 L163.23,239.97 L163.70,240.21 L164.17,240.45 L164.65,240.69 L165.12,240.92 L165.60,241.16 L166.07,241.39 L166.55,241.62 L167.03,241.85 L167.51,242.08 L167.99,242.30 L168.47,242.53 L168.95,242.75 L169.43,242.97 L169.92,243.19 L170.40,243.41 L170.88,243.62 L171.37,243.84 L171.86,244.05 L172.34,244.26 L172.83,244.47 L173.32,244.68 L173.81,244.88 L174.30,245.09 L174.79,245.29 L175.28,245.49 L175.77,245.69 L176.26,245.88 L176.76,246.08 L177.25,246.27 L177.74,246.46 L178.24,246.65 L178.73,246.84 L179.23,247.03 L179.73,247.21 L180.22,247.39 L180.72,247.58 L181.22,247.75 L181.72,247.93 L182.22,248.11 L182.72,248.28 L183.22,248.45 L183.72,248.62 L184.22,248.79 L184.72,248.96 L185.22,249.12 L185.72,249.28 L186.22,249.45 L186.73,249.60 L187.23,249.76 L187.73,249.92 L188.24,250.07 L188.74,250.22 L189.24,250.37 L189.75,250.52 L190.25,250.67 L190.76,250.81 L191.26,250.95 L191.77,251.09 L192.28,251.23 L192.78,251.37 L193.29,251.50 L193.79,251.63 L194.30,251.77 L194.81,251.89 L195.32,252.02 L195.82,252.15 L196.33,252.27 L196.84,252.39 L197.34,252.51 L197.85,252.63 L198.36,252.74 L198.87,252.85 L199.38,252.97 L199.88,253.07 L200.39,253.18 L200.90,253.29 L201.41,253.39 L201.91,253.49 L202.42,253.59 L202.93,253.69 L203.44,253.78 L203.95,253.88 L204.45,253.97 L204.96,254.06 L205.47,254.14 L205.98,254.23 L206.48,254.31 L206.99,254.39 L207.50,254.47 L208.00,254.55 L208.51,254.62 L209.02,254.70 L209.52,254.77 L210.03,254.83 L210.53,254.90 L211.04,254.97 L211.54,255.03 L212.05,255.09 L212.55,255.15 L213.06,255.20 L213.56,255.25 L214.07,255.31 L214.57,255.36 L215.07,255.40 L215.58,255.45 L216.08,255.49 L216.58,255.53 L217.08,255.57 L217.58,255.61 L218.09,255.64 L218.59,255.67 L219.09,255.71 L219.59,255.73 L220.08,255.76 L220.58,255.78 L221.08,255.80 L221.58,255.82 L222.08,255.84 L222.57,255.85 L223.07,255.87 L223.56,255.88 L224.06,255.89 L224.55,255.89 L225.05,255.89 L225.54,255.90 L226.03,255.90 L226.53,255.89 L227.02,255.89 L227.51,255.88 L228.00,255.87 L228.49,255.86Z" layer="Default"/>
<path spline_1deg="" d=" M254.24,165.81 L276.93,174.88 L277.38,222.98 L237.46,195.30" layer="Layer 01"/>
<path spline_1deg="" d=" M173.48,174.20 L143.53,212.77 L191.86,230.92 L199.34,197.11" layer="Layer 01"/>
<path spline_1deg="" d=" M158.05,153.33 L129.47,149.70 L141.27,102.51 L161.91,114.08" layer="Layer 01"/>
<path spline_1deg="" d=" M175.29,108.86 L170.53,93.21 L205.24,77.33 L202.75,93.44" layer="Layer 01"/>
<path spline_1deg="" d=" M216.81,95.25 L230.73,78.95 L254.92,109.32 L231.03,121.82" layer="Layer 01"/>
<path spline_1deg="" d=" M211.58,112.53 L194.98,112.72 L177.46,130.38 L194.64,148.78Z" layer="Layer 02"/>
<path spline_1deg="" d=" M197.85,152.22 L209.41,164.62 L202.77,176.03 L223.70,174.33Z" layer="Layer 02"/>
    </svg>